# xmcd
#
# Track frame offsets:
#	150
#	13428
#	30816
#
# Disc length: 482 seconds
#
# Revision: 1
# Processed by: cddbd v1.5PL3 Copyright (c) Steve Scherf et al.
# Submitted via: CDex 1.50Beta5
#
DISCID=1801e003
DTITLE=15 Minutes - 15 Minutes
DYEAR=1900
DGENRE=Pop
TTITLE0=今日もいい一日
TTITLE1=君ともう一度…
TTITLE2=日本人！
EXTD=
EXTT0=
EXTT1=
EXTT2=
PLAYORDER=
